<svg width="820" height="220" viewBox="0 0 820 220" fill="none" xmlns="http://www.w3.org/2000/svg" role="img" aria-labelledby="movaflexLogoTitle movaflexLogoDesc">
  <title id="movaflexLogoTitle">Movaflex Designs Unlimited Inc Logo</title>
  <desc id="movaflexLogoDesc">Geometric emblem with MOVAFLEX wordmark and DESIGNS UNLIMITED INC subtitle.</desc>
  <defs>
    <linearGradient id="mvBlue" x1="210" y1="0" x2="210" y2="120" gradientUnits="userSpaceOnUse">
      <stop offset="0" stop-color="#94A3B8"/>
      <stop offset="1" stop-color="#475569"/>
    </linearGradient>
  </defs>

  <g transform="translate(30 18)" stroke="url(#mvBlue)" stroke-width="10" stroke-linecap="round" stroke-linejoin="round" fill="none">
    <path d="M100 4L156 60L100 116L44 60L100 4Z"/>
    <path d="M126 30L156 60L126 90L96 60L126 30Z"/>
    <path d="M74 30L104 60L74 90L44 60L74 30Z"/>
    <path d="M100 44L116 60L100 76L84 60L100 44Z"/>
    <path d="M32 60L20 72"/>
    <path d="M168 60L180 72"/>
    <path d="M100 128L100 146"/>
  </g>

  <g transform="translate(240 26)">
    <text x="0" y="112" fill="#1D4ED8" font-family="Sora, Manrope, Segoe UI, Arial, sans-serif" font-size="98" font-weight="800" letter-spacing="1.4">MOVAFLEX</text>
    <text x="2" y="165" fill="#1E3A8A" font-family="Manrope, Segoe UI, Arial, sans-serif" font-size="37" font-weight="700" letter-spacing="12">DESIGNS UNLIMITED INC</text>
  </g>
</svg>
